<?xml version="1.0" encoding="utf-8"?>
<svg width="18" height="18" viewBox="0 0 18 18" fill="none" xmlns="http://www.w3.org/2000/svg">
  <g transform="translate(-0 0)">
    <rect width="18" height="18" />
    <path d="M8.54449 3.11634C8.54449 3.11634 9.04395 4.65272 9.04395 4.65272C9.05901 4.69906 9.1022 4.73044 9.15094 4.73044C9.15094 4.73044 10.7664 4.73044 10.7664 4.73044C10.8754 4.73044 10.9207 4.86991 10.8325 4.93396C10.8325 4.93396 9.52537 5.88347 9.52537 5.88347C9.48593 5.91212 9.46943 5.96291 9.4845 6.00927C9.4845 6.00927 9.98391 7.5457 9.98391 7.5457C10.0176 7.64935 9.89897 7.73555 9.8108 7.6715C9.8108 7.6715 8.50362 6.72195 8.50362 6.72195C8.46419 6.69331 8.41081 6.69331 8.37138 6.72195C8.37138 6.72195 7.0642 7.6715 7.0642 7.6715C6.97603 7.73555 6.8574 7.64935 6.89109 7.5457C6.89109 7.5457 7.3905 6.00927 7.3905 6.00927C7.40557 5.96291 7.38907 5.91212 7.34963 5.88347C7.34963 5.88347 6.0425 4.93396 6.0425 4.93396C5.95432 4.86991 5.99963 4.73044 6.10862 4.73044C6.10862 4.73044 7.72406 4.73044 7.72406 4.73044C7.77279 4.73044 7.81599 4.69906 7.83105 4.65272C7.83105 4.65272 8.33051 3.11634 8.33051 3.11634C8.3642 3.01271 8.5108 3.01271 8.54449 3.11634ZM3.375 0L3.375 2.25L0 2.25L0 3.375C0 4.26132 0.174683 5.13913 0.51416 5.95816C0.852539 6.77719 1.35022 7.52124 1.97754 8.14801C2.46313 8.63361 3.01904 9.04147 3.62549 9.35815C4.23853 11.1149 5.90955 12.375 7.875 12.375L7.875 14.6596C7.03894 14.7632 6.25781 15.0955 5.65356 15.6135C4.91528 16.2466 4.5 17.1049 4.5 18L12.375 18C12.375 17.8992 12.3695 17.799 12.3585 17.6992L12.3475 17.6042L12.3278 17.482L12.3047 17.3694C12.2607 17.1686 12.1948 16.972 12.1091 16.7822C11.9136 16.3482 11.6125 15.9491 11.2214 15.6135C10.6172 15.0955 9.83606 14.7632 9 14.6596L9 12.375C10.9655 12.375 12.6365 11.1149 13.2495 9.35815C13.6011 9.17441 13.9351 8.96017 14.2493 8.71793C14.4767 8.54242 14.6931 8.35208 14.8975 8.14801C15.5248 7.52124 16.0225 6.77719 16.3608 5.95816C16.7003 5.13913 16.875 4.26132 16.875 3.375L16.875 2.25L13.5 2.25L13.5 0L3.375 0ZM3.375 3.375L1.1283 3.375C1.1283 3.65213 1.14917 3.92844 1.18982 4.20145C1.25684 4.65546 1.37988 5.1004 1.55566 5.5264C1.83911 6.20837 2.2533 6.82828 2.77515 7.35013C2.96301 7.53799 3.16296 7.71625 3.375 7.875L3.375 3.375ZM13.5 3.375L13.5 7.875C13.712 7.71625 13.912 7.53799 14.0999 7.35013C14.6217 6.82828 15.0359 6.20837 15.3193 5.5264C15.4951 5.1004 15.6182 4.65546 15.6852 4.20145C15.7072 4.05368 15.7236 3.90509 15.7335 3.75595C15.7423 3.62933 15.7467 3.50217 15.7467 3.375L13.5 3.375ZM8.4375 11.25C6.26331 11.25 4.5 9.48724 4.5 7.3125L4.5 1.125L12.375 1.125L12.375 7.3125C12.375 9.48724 10.6117 11.25 8.4375 11.25ZM8.4386 15.7503C10.1272 15.7503 10.8007 16.8753 10.8007 16.8753L6.07544 16.8753C6.07544 16.8753 6.7511 15.7503 8.4386 15.7503Z" fill="#5E5D67" />
  </g>
</svg>