<?xml version="1.0" encoding="utf-8"?>
<svg width="11" height="11" viewBox="0 0 11 11" fill="none" xmlns="http://www.w3.org/2000/svg">
  <g>
    <rect width="11" height="11" />
    <path d="M2.75 0L2.75 0.6875L0.859375 0.6875C0.764451 0.6875 0.6875 0.764451 0.6875 0.859375L0.6875 2.75L0 2.75L0 0.34375C0 0.153902 0.153902 0 0.34375 0L2.75 0ZM5.5 0.6875L5.5 0L7.90625 0C8.0961 0 8.25 0.153902 8.25 0.34375L8.25 2.75L7.5625 2.75L7.5625 0.859375C7.5625 0.764451 7.48555 0.6875 7.39062 0.6875L5.5 0.6875ZM0 7.90625C0 8.0961 0.153902 8.25 0.34375 8.25L2.75 8.25L2.75 7.5625L0.859375 7.5625C0.764451 7.5625 0.6875 7.48555 0.6875 7.39062L0.6875 5.5L0 5.5L0 7.90625ZM5.98788 11L7.73018 8.24386L11 7.33281L4.125 3.4375L5.98788 11Z" fill="#5E5D67" />
  </g>
</svg>