<?xml version="1.0" encoding="utf-8"?>
<svg width="11" height="9.625" viewBox="0 0 11 9.625" fill="none" xmlns="http://www.w3.org/2000/svg">
  <path d="M8.50039 1.72064C7.77393 0.854144 6.76556 0.271112 5.65216 0.0738263C4.53877 -0.12346 3.39146 0.0775988 2.41151 0.641732C1.43155 1.20587 0.681523 2.09705 0.293002 3.15894C-0.0955177 4.22083 -0.0977204 5.38562 0.286781 6.44898C0.671282 7.51233 1.41793 8.40634 2.39575 8.97418C3.37357 9.54201 4.52011 9.74741 5.63424 9.55433C6.74837 9.36126 7.75894 8.78205 8.48867 7.9183L7.9635 7.47462C7.20683 8.36937 6.07596 8.9375 4.81239 8.9375C2.53422 8.9375 0.687392 7.09067 0.687392 4.8125C0.687392 2.53433 2.53422 0.6875 4.81239 0.6875C6.91495 0.6875 8.65009 2.26057 8.90512 4.29398L8.14932 3.53818C8.01507 3.40394 7.79743 3.40394 7.66318 3.53818C7.52894 3.67242 7.52894 3.89008 7.66318 4.02432L9.28125 5.64239L10.8993 4.02432C11.0336 3.89008 11.0336 3.67242 10.8993 3.53818C10.7651 3.40394 10.5474 3.40394 10.4132 3.53818L9.60261 4.34875C9.50933 3.38514 9.12699 2.46803 8.50039 1.72064Z" fill="#5E5D67" />
</svg>